<svg width="70" height="44" viewBox="0 0 70 44" fill="none" xmlns="http://www.w3.org/2000/svg">
<path id="Vector" d="M20.2421 0C22.2945 0 24.15 0.171643 25.8502 0.550138C27.5263 0.928632 28.9726 1.51398 30.1804 2.33918C31.3773 3.16439 32.3117 4.24266 32.9834 5.62901C33.6333 7.00435 33.9746 8.71198 33.9746 10.7057C33.9746 12.871 33.4735 14.6953 32.4933 16.1608C31.5021 17.6286 30.0535 18.7971 28.1061 19.7367C30.7494 20.5047 32.7099 21.8449 34.0096 23.7593C35.3203 25.6958 35.9461 28.0108 35.9461 30.6823C35.9461 32.8828 35.5697 34.7621 34.7492 36.3443C33.9396 37.9595 32.7996 39.2776 31.3642 40.3097C29.9616 41.3307 28.2987 42.0635 26.4979 42.5564C24.719 43.0384 22.8394 43.3024 20.9248 43.3024H0V0.0242053H20.2399L20.2421 0ZM49.4291 35.6797C50.7048 36.9406 52.5516 37.57 54.9563 37.57C56.6761 37.57 58.1597 37.1343 59.4113 36.2519C60.6541 35.4047 61.3937 34.4628 61.6913 33.5012H69.2358C68.063 37.2487 66.1812 39.9532 63.6977 41.5706C61.2142 43.21 58.2056 44 54.7178 44C52.2671 44 50.09 43.6215 48.0857 42.8315C46.1251 42.0415 44.4622 40.917 43.0705 39.4845C41.7139 38.0519 40.6658 36.3201 39.924 34.2934C39.1823 32.2667 38.83 30.0419 38.83 27.6345C38.83 25.2733 39.2282 23.119 40.0159 21.0901C40.8015 19.0392 41.8846 17.3315 43.2762 15.8418C44.7225 14.341 46.3767 13.2165 48.3482 12.3341C50.3088 11.4517 52.429 11.0622 54.8206 11.0622C57.477 11.0622 59.7548 11.5441 61.7613 12.5981C63.7218 13.595 65.3279 15.0056 66.6057 16.7022C67.8945 18.4208 68.7938 20.4035 69.3518 22.6393C69.9098 24.8398 70.0804 27.1548 69.9666 29.6194H47.5277C47.5277 32.084 48.3482 34.41 49.602 35.6709L49.3635 35.7633L49.4291 35.6797ZM19.5463 35.8272C20.4697 35.8272 21.358 35.7347 22.1895 35.5521C23.0319 35.3804 23.7846 35.0702 24.4126 34.6697C25.0275 34.2802 25.5526 33.7058 25.9399 32.962C26.3163 32.2623 26.4869 31.2896 26.4869 30.1431C26.4869 27.9426 25.848 26.3604 24.6183 25.3988C23.3645 24.4591 21.7344 23.9882 19.6951 23.9882H9.4504V35.8734H19.5485V35.7809L19.5463 35.8272ZM59.2515 19.2548C58.2144 18.1193 56.5055 17.512 54.4071 17.512C53.0505 17.512 51.9236 17.7298 51.0111 18.2118C50.1337 18.6475 49.4051 19.2438 48.8449 19.9414C48.2979 20.6412 47.9216 21.3519 47.7049 22.1419C47.4883 22.9099 47.3526 23.6097 47.3176 24.2281H61.2099C61.0042 22.0275 60.2405 20.4123 59.2275 19.2658V19.301L59.2515 19.2548ZM19.0233 17.4438C20.6994 17.4438 22.0889 17.0543 23.1829 16.2401C24.277 15.4501 24.8021 14.1187 24.8021 12.3099C24.8021 11.302 24.5964 10.4768 24.277 9.83426C23.8897 9.1807 23.3995 8.68777 22.8175 8.33348C22.2026 7.96599 21.4959 7.71513 20.7082 7.57649C19.9226 7.41585 19.078 7.35864 18.2575 7.35864H9.42633V17.4438H19.0233ZM45.565 2.90033H62.9779V7.16279H45.565V2.86512V2.90033Z" fill="white"/>
</svg>
