<svg width="58" height="46" viewBox="0 0 58 46" fill="none" xmlns="http://www.w3.org/2000/svg">
<path id="Vector" d="M49.3 0H8.7C6.39262 0 4.17974 0.908703 2.54817 2.5262C0.916605 4.14371 0 6.33751 0 8.625V37.375C0 39.6625 0.916605 41.8563 2.54817 43.4738C4.17974 45.0913 6.39262 46 8.7 46H49.3C51.6074 46 53.8203 45.0913 55.4518 43.4738C57.0834 41.8563 58 39.6625 58 37.375V8.625C58 6.33751 57.0834 4.14371 55.4518 2.5262C53.8203 0.908703 51.6074 0 49.3 0ZM47.357 5.75L29 19.4062L10.643 5.75H47.357ZM49.3 40.25H8.7C7.93087 40.25 7.19325 39.9471 6.64939 39.4079C6.10554 38.8688 5.8 38.1375 5.8 37.375V9.34375L27.26 25.3C27.762 25.6732 28.3725 25.875 29 25.875C29.6275 25.875 30.238 25.6732 30.74 25.3L52.2 9.34375V37.375C52.2 38.1375 51.8945 38.8688 51.3506 39.4079C50.8068 39.9471 50.0691 40.25 49.3 40.25Z" fill="white"/>
</svg>
