<svg width="48" height="46" viewBox="0 0 48 46" fill="none" xmlns="http://www.w3.org/2000/svg">
<path id="Vector" d="M13.92 0H34.08C41.76 0 48 5.98 48 13.34V32.66C48 36.198 46.5334 39.5911 43.9229 42.0928C41.3124 44.5945 37.7718 46 34.08 46H13.92C6.24 46 0 40.02 0 32.66V13.34C0 9.80201 1.46657 6.40893 4.07707 3.9072C6.68758 1.40546 10.2282 0 13.92 0ZM13.44 4.6C11.1485 4.6 8.95091 5.47235 7.3306 7.02516C5.71028 8.57796 4.8 10.684 4.8 12.88V33.12C4.8 37.697 8.664 41.4 13.44 41.4H34.56C36.8515 41.4 39.0491 40.5276 40.6694 38.9748C42.2897 37.422 43.2 35.316 43.2 33.12V12.88C43.2 8.303 39.336 4.6 34.56 4.6H13.44ZM36.6 8.05C37.3957 8.05 38.1587 8.3529 38.7213 8.89207C39.2839 9.43124 39.6 10.1625 39.6 10.925C39.6 11.6875 39.2839 12.4188 38.7213 12.9579C38.1587 13.4971 37.3957 13.8 36.6 13.8C35.8044 13.8 35.0413 13.4971 34.4787 12.9579C33.9161 12.4188 33.6 11.6875 33.6 10.925C33.6 10.1625 33.9161 9.43124 34.4787 8.89207C35.0413 8.3529 35.8044 8.05 36.6 8.05ZM24 11.5C27.1826 11.5 30.2348 12.7116 32.4853 14.8683C34.7357 17.0249 36 19.95 36 23C36 26.05 34.7357 28.9751 32.4853 31.1317C30.2348 33.2884 27.1826 34.5 24 34.5C20.8174 34.5 17.7652 33.2884 15.5147 31.1317C13.2643 28.9751 12 26.05 12 23C12 19.95 13.2643 17.0249 15.5147 14.8683C17.7652 12.7116 20.8174 11.5 24 11.5ZM24 16.1C22.0904 16.1 20.2591 16.827 18.9088 18.121C17.5586 19.415 16.8 21.17 16.8 23C16.8 24.83 17.5586 26.585 18.9088 27.879C20.2591 29.173 22.0904 29.9 24 29.9C25.9096 29.9 27.7409 29.173 29.0912 27.879C30.4414 26.585 31.2 24.83 31.2 23C31.2 21.17 30.4414 19.415 29.0912 18.121C27.7409 16.827 25.9096 16.1 24 16.1Z" fill="white"/>
</svg>
