<svg width="44" height="44" viewBox="0 0 44 44" fill="none" xmlns="http://www.w3.org/2000/svg">
<path id="Vector" d="M40.7409 0H3.24806C1.45506 0 0 1.42083 0 3.17044V40.8253C0 42.5773 1.45506 44 3.24806 44H40.7409C42.5352 44 44 42.5773 44 40.8253V3.17044C44 1.42083 42.5352 0 40.7409 0ZM13.0497 37.4941H6.52056V16.4969H13.0497V37.4941ZM9.78511 13.6259C7.69328 13.6259 6.00233 11.9307 6.00233 9.84072C6.00233 7.75378 7.69328 6.05856 9.78511 6.05856C11.8721 6.05856 13.5673 7.75378 13.5673 9.84072C13.5673 11.9307 11.8721 13.6259 9.78511 13.6259ZM37.4917 37.4941H30.9729V27.2837C30.9729 24.8478 30.9253 21.7158 27.5807 21.7158C24.1841 21.7158 23.6665 24.3687 23.6665 27.1071V37.4947H17.1429V16.4969H23.4037V19.3643H23.4929C24.3644 17.7143 26.4935 15.9732 29.6688 15.9732C36.2725 15.9732 37.4923 20.3207 37.4923 25.9765L37.4917 37.4941Z" fill="white"/>
</svg>
