<svg width="57" height="57" viewBox="0 0 57 57" fill="none" xmlns="http://www.w3.org/2000/svg">
<g id="Group">
<path id="Vector" d="M57 28.5C57 12.7965 44.2035 0 28.5 0C12.7965 0 0 12.7965 0 28.5C0 36.765 3.5625 44.2035 9.2055 49.419C9.2055 49.4475 9.2055 49.4475 9.177 49.476C9.462 49.761 9.804 49.989 10.089 50.2455C10.26 50.388 10.4025 50.5305 10.5735 50.6445C11.0865 51.072 11.6565 51.471 12.198 51.87C12.3975 52.0125 12.5685 52.1265 12.768 52.269C13.3095 52.6395 13.8795 52.9815 14.478 53.295C14.6775 53.409 14.9055 53.5515 15.105 53.6655C15.675 53.979 16.2735 54.264 16.9005 54.5205C17.1285 54.6345 17.3565 54.7485 17.5845 54.834C18.2115 55.0905 18.8385 55.3185 19.4655 55.518C19.6935 55.6035 19.9215 55.689 20.1495 55.746C20.8335 55.9455 21.5175 56.1165 22.2015 56.2875C22.401 56.3445 22.6005 56.4015 22.8285 56.43C23.6265 56.601 24.4245 56.715 25.251 56.8005C25.365 56.8005 25.479 56.829 25.593 56.8575C26.562 56.943 27.531 57 28.5 57C29.469 57 30.438 56.943 31.3785 56.8575C31.4925 56.8575 31.6065 56.829 31.7205 56.8005C32.547 56.715 33.345 56.601 34.143 56.43C34.3425 56.4015 34.542 56.316 34.77 56.2875C35.454 56.1165 36.1665 55.974 36.822 55.746C37.05 55.6605 37.278 55.575 37.506 55.518C38.133 55.29 38.7885 55.0905 39.387 54.834C39.615 54.7485 39.843 54.6345 40.071 54.5205C40.6695 54.264 41.268 53.979 41.8665 53.6655C42.0945 53.5515 42.294 53.409 42.4935 53.295C43.0635 52.953 43.6335 52.6395 44.2035 52.269C44.403 52.155 44.574 52.0125 44.7735 51.87C45.3435 51.471 45.885 51.072 46.398 50.6445C46.569 50.502 46.7115 50.3595 46.8825 50.2455C47.196 49.989 47.5095 49.7325 47.7945 49.476C47.7945 49.4475 47.7945 49.4475 47.766 49.419C53.4375 44.2035 57 36.765 57 28.5ZM42.579 42.6645C34.8555 37.4775 22.2015 37.4775 14.421 42.6645C13.167 43.491 12.141 44.46 11.286 45.5145C6.954 41.1255 4.275 35.112 4.275 28.5C4.275 15.1335 15.1335 4.275 28.5 4.275C41.8665 4.275 52.725 15.1335 52.725 28.5C52.725 35.112 50.046 41.1255 45.714 45.5145C44.8875 44.46 43.833 43.491 42.579 42.6645Z" fill="white"/>
<path id="Vector_2" d="M28.5 14.0496C22.6005 14.0496 17.8125 18.8376 17.8125 24.7371C17.8125 30.5226 22.344 35.2251 28.3575 35.3961H28.614H28.8135H28.8705C34.6275 35.1966 39.159 30.5226 39.1875 24.7371C39.1875 18.8376 34.3995 14.0496 28.5 14.0496Z" fill="white"/>
</g>
</svg>
